# xmcd
#
# Track frame offsets:
#	150
#	16087
#	37646
#	55806
#	72538
#	96836
#	118149
#	135490
#	148496
#	164958
#	183052
#	204143
#	219269
#	233650
#	249420
#	270880
#	287708
#	301241
#	315616
#	332552
#
# Disc length: 4691 seconds
#
# Revision: 1
# Processed by: cddbd v1.5.2PL0 Copyright (c) Steve Scherf et al.
# Submitted via: audiograbber 1.83.01
#
DISCID=16125114
DTITLE=Various Artist - NOW - That's What I Call Country 2008
DYEAR=2008
DGENRE=Country
TTITLE0=Carrie Underwood - All-American Girl
TTITLE1=Rascal Flatts - Winner At A Losing Game
TTITLE2=Gary Allan - Watching Airplanes
TTITLE3=Reba McEntire - Because Of You (Duet With Kelly Clarkson)
TTITLE4=Keith Urban - Everybody
TTITLE5=Sugarland - Stay
TTITLE6=Lady Antebellum - Love Don't Live Here
TTITLE7=Taylor Swift - Picture To Burn
TTITLE8=Dierks Bentley - Trying To Stop Your Leaving
TTITLE9=Luke Bryan - All My Friends Say
TTITLE10=Brad Paisley - Letter To Me
TTITLE11=George Strait - I Saw God Today
TTITLE12=Julianne Hough - That Song In My Head
TTITLE13=Sara Evans - As If
TTITLE14=Kenny Chesney - Don't Blink
TTITLE15=Trace Adkins - You're Gonna Miss This
TTITLE16=Chris Cagle - What Kinda Gone
TTITLE17=Kellie Pickler - Things That Never Cross A Man's Mind
TTITLE18=Josh Turner - Another Try
TTITLE19=Jason Michael Carroll - Alyssa Lies
EXTD=
EXTT0=
EXTT1=
EXTT2=
EXTT3=
EXTT4=
EXTT5=
EXTT6=
EXTT7=
EXTT8=
EXTT9=
EXTT10=
EXTT11=
EXTT12=
EXTT13=
EXTT14=
EXTT15=
EXTT16=
EXTT17=
EXTT18=
EXTT19=
PLAYORDER=
